<svg xmlns="http://www.w3.org/2000/svg" preserveAspectRatio="none" viewBox="0 0 312 92"><defs><style>.cls-1{fill:#170b05;}.cls-2{fill:#33180b;}.cls-3{fill:#220f08;}</style></defs><g id="Layer_2" data-name="Layer 2"><path class="cls-1" d="M-1608,92V0H312V92c-20,0-40-.18-60,.1-4.78.06-7-1.27-9.28-5.72C231.3,63.71,213,51.08,187.16,51.07Q1.41,51-184.31,51.12-834.76,51.06-1485.2,51a54.33,54.33,0,0,0-12.75,1.62c-19,4.61-32.43,16.36-40.78,33.71-2.18,4.52-4.5,5.79-9.28,5.73C-1568,91.81-1588,92-1608,92Z"/><path class="cls-2" d="M-1547.91,85.09c-7.75-.11-17.74-.16-31.45-.16-8.08,0-16.31,0-23.94,0l-9.7,0V7H320V85l-9.83,0c-8.09,0-16.95,0-25.62,0-14.33,0-25,0-32.64.16h-.24a4.82,4.82,0,0,1-1.63-.16h0A7.21,7.21,0,0,1,249,83.22c-12.91-25.6-34.29-39.13-61.82-39.15H115.1l-140.17,0-140.15,0-345.74,0q-405.7,0-811.42,0H-1485.2a61.32,61.32,0,0,0-14.4,1.81c-20.58,5-35.87,17.62-45.44,37.49a6.13,6.13,0,0,1-1,1.64h0a8.14,8.14,0,0,1-1.61.12Z"/><path class="cls-3" d="M253,80.07c-13.86-26.81-36.61-41-65.83-41H115.1l-140.17,0H-36l-129.2,0-373.47,0q-391.84,0-783.69,0H-1485.2A66.46,66.46,0,0,0-1500.78,41c-21.73,5.29-38,18.44-48.23,39.09-7.57-.09-18.06-.14-32-.14-8.87,0-17.94,0-26.16,0H-1612V12H320V80h-5.87c-8.59,0-18.18,0-27.53,0C271.62,79.93,260.6,80,253,80.07Z"/></g></svg>
