<svg xmlns="http://www.w3.org/2000/svg" preserveAspectRatio="none" viewBox="0 0 1296 92"><defs><style>.cls-1{fill:#170b05;}.cls-2{fill:#33180b;}.cls-3{fill:#220f08;}</style></defs><g id="Layer_2" data-name="Layer 2"><path class="cls-1" d="M-312,92V0H1608V92c-20,0-40-.18-60,.1-4.78.06-7-1.27-9.28-5.72-11.43-22.66-29.72-35.29-55.57-35.3q-185.75-.06-371.47,0Q461.24,51.06-189.2,51a54.33,54.33,0,0,0-12.75,1.62c-19,4.61-32.43,16.36-40.78,33.71-2.18,4.52-4.5,5.79-9.28,5.73C-272,91.81-292,92-312,92Z"/><path class="cls-2" d="M-251.91,85.09c-7.75-.11-17.74-.16-31.45-.16-8.08,0-16.31,0-23.94,0l-9.7,0V7H1616V85l-9.83,0c-8.09,0-17,0-25.62,0-14.33,0-25,0-32.64.16h-.24a4.82,4.82,0,0,1-1.63-.16h0a7.21,7.21,0,0,1-1.06-1.71c-12.91-25.6-34.29-39.13-61.82-39.15H1411.1l-140.17,0-140.15,0L785,44.08q-405.7,0-811.42,0H-189.2a61.32,61.32,0,0,0-14.4,1.81c-20.58,5-35.87,17.62-45.44,37.49A6.13,6.13,0,0,1-250,85h0a8.14,8.14,0,0,1-1.61.12Z"/><path class="cls-3" d="M1549,80.07c-13.86-26.81-36.61-41-65.83-41H1411.1l-140.17,0h-11l-129.2,0-373.47,0q-391.84,0-783.69,0H-189.2A66.46,66.46,0,0,0-204.78,41c-21.73,5.29-37.95,18.44-48.23,39.09-7.57-.09-18.06-.14-32-.14-8.87,0-17.94,0-26.16,0H-316V12H1616V80h-5.87c-8.59,0-18.18,0-27.53,0C1567.62,79.93,1556.6,80,1549,80.07Z"/></g></svg>
