<svg xmlns="http://www.w3.org/2000/svg" preserveAspectRatio="none" viewBox="0 0 312 92"><defs><style>.cls-1{fill:#170b05;}.cls-2{fill:#33180b;}.cls-3{fill:#220f08;}</style></defs><g id="Layer_2" data-name="Layer 2"><path class="cls-1" d="M0,92V0H1920V92c-20,0-40-.18-60,.1-4.78.06-7-1.27-9.28-5.72-11.43-22.66-29.72-35.29-55.57-35.3q-185.75-.06-371.47,0Q773.24,51.06,122.8,51a54.33,54.33,0,0,0-12.75,1.62C91.05,57.26,77.62,69,69.27,86.36c-2.18,4.52-4.5,5.79-9.28,5.73C40,91.81,20,92,0,92Z"/><path class="cls-2" d="M60.09,85.09c-7.75-.11-17.74-.16-31.45-.16-8.08,0-16.31,0-23.94,0L-5,85V7H1928V85l-9.83,0c-8.09,0-17,0-25.62,0-14.33,0-25,0-32.64.16h-.24a4.82,4.82,0,0,1-1.63-.16h0a7.21,7.21,0,0,1-1.06-1.71c-12.91-25.6-34.29-39.13-61.82-39.15H1723.1l-140.17,0-140.15,0-345.74,0q-405.7,0-811.42,0H122.8a61.32,61.32,0,0,0-14.4,1.81C87.82,50.85,72.53,63.46,63,83.33A6.13,6.13,0,0,1,62,85h0a8.14,8.14,0,0,1-1.61.12Z"/><path class="cls-3" d="M1861,80.07c-13.86-26.81-36.61-41-65.83-41H1723.1l-140.17,0h-11l-129.2,0-373.47,0q-391.84,0-783.69,0H122.8A66.46,66.46,0,0,0,107.22,41C85.49,46.27,69.27,59.42,59,80.07c-7.57-.09-18.06-.14-32-.14-8.87,0-17.94,0-26.16,0H-4V12H1928V80h-5.87c-8.59,0-18.18,0-27.53,0C1879.62,79.93,1868.6,80,1861,80.07Z"/></g></svg>
