<svg xmlns="http://www.w3.org/2000/svg" viewBox="0 0 512 512" class="MenuItem_icon__dI445"><path d="m256 118.08c-37.276 0-67.603 30.327-67.603 67.603s30.327 67.603 67.603 67.603c37.277 0 67.603-30.327 67.603-67.603s-30.326-67.603-67.603-67.603zm0 114.93c-26.096 0-47.325-21.23-47.325-47.325s21.229-47.325 47.325-47.325 47.325 21.229 47.325 47.325-21.229 47.325-47.325 47.325z"></path><path d="m256 168.78c-9.323 0-16.908 7.585-16.908 16.908s7.585 16.908 16.908 16.908 16.908-7.585 16.908-16.908-7.584-16.908-16.908-16.908z"></path><path d="m256 0c-102.39 0-185.69 83.299-185.69 185.69 0 49.027 18.934 95.274 53.313 130.22l2.729 2.769c10.725 11.278 19.352 24.172 25.64 38.164h208.01c6.259-13.929 14.836-26.769 25.492-38.009l2.876-2.924c34.38-34.944 53.313-81.191 53.313-130.22 1e-3 -102.39-83.299-185.69-185.69-185.69zm124.02 200.9h-27.182c-2.456 15.697-8.653 30.169-17.644 42.479l19.254 19.254-21.508 21.508-19.254-19.254c-12.309 8.99-26.781 15.187-42.479 17.644v27.181h-30.417v-27.181c-15.697-2.456-30.169-8.653-42.479-17.644l-19.254 19.254-21.508-21.508 19.254-19.254c-8.99-12.31-15.188-26.781-17.644-42.479h-27.18v-30.417h27.181c2.456-15.697 8.653-30.169 17.644-42.479l-19.254-19.254 21.508-21.508 19.254 19.254c12.309-8.99 26.781-15.187 42.479-17.644v-27.18h30.417v27.181c15.697 2.456 30.17 8.653 42.479 17.644l19.254-19.254 21.508 21.508-19.255 19.253c8.991 12.31 15.187 26.781 17.644 42.479h27.182v30.417z"></path><path d="m145.31 387.26v33.267c0 13.992 10.74 25.518 24.41 26.779v17.869c0 25.82 21.007 46.827 46.827 46.827h78.904c25.821 0 46.828-21.007 46.828-46.827v-17.869c13.668-1.26 24.409-12.787 24.409-26.779v-33.267h-221.38z"></path></svg>
